<?xml version="1.0" encoding="utf-8"?>
<!-- Generator: Adobe Illustrator 24.1.0, SVG Export Plug-In . SVG Version: 6.00 Build 0)  -->
<svg version="1.1" id="Capa_1" xmlns="http://www.w3.org/2000/svg" xmlns:xlink="http://www.w3.org/1999/xlink" x="0px" y="0px"
	 viewBox="0 0 16 16" style="enable-background:new 0 0 16 16;" xml:space="preserve">
<style type="text/css">
	.st0{fill:#FFFFFF;}
	.st1{fill-rule:evenodd;clip-rule:evenodd;}
</style>
<rect x="1" y="3" class="st0" width="14" height="10"/>
<path d="M14,3c0.6,0,1,0.4,1,1v8c0,0.6-0.4,1-1,1H2c-0.6,0-1-0.4-1-1V4c0-0.6,0.4-1,1-1H14z M2,2C0.9,2,0,2.9,0,4v8c0,1.1,0.9,2,2,2
	h12c1.1,0,2-0.9,2-2V4c0-1.1-0.9-2-2-2H2z"/>
<path class="st1" d="M9.1,8.1C9.3,8,9.7,8,9.9,8.1c0,0,0,0,0,0l1.6,1.6l1.6-1.6c0.2-0.2,0.5-0.2,0.7,0s0.2,0.5,0,0.7l-2,2
	c-0.2,0.2-0.5,0.2-0.7,0c0,0,0,0,0,0l-2-2C9,8.7,9,8.3,9.1,8.1C9.1,8.1,9.1,8.1,9.1,8.1z"/>
<path class="st1" d="M11.5,5C11.8,5,12,5.2,12,5.5v4c0,0.3-0.2,0.5-0.5,0.5S11,9.8,11,9.5v-4C11,5.2,11.2,5,11.5,5z"/>
<path d="M3.6,11V7h0.1L5,10.2h0.8L7.2,7h0.1v4h1.1V5H7.2L5.5,8.9h0L3.7,5H2.5v6H3.6z"/>
</svg>
